<svg xmlns="http://www.w3.org/2000/svg" viewBox="0 0 1200 675" width="1200" height="675">
  <rect width="1200" height="675" fill="#0c0c0c"/>
  <rect x="0" y="0" width="14" height="675" fill="#c41e1e"/>
  <text x="80" y="100" font-family="'Bebas Neue',sans-serif" font-size="30" fill="#c41e1e" letter-spacing="5">TE PĀ TŪWATAWATA · MODULE 2</text>
  <text y="210" font-family="'Bebas Neue',sans-serif" font-size="60" fill="#f5f0e6" letter-spacing="2"><tspan x="80" dy="0">Te Pā Tūwatawata hei</tspan><tspan x="80" dy="68">tauira</tspan></text>
  <text y="374" font-family="-apple-system,sans-serif" font-size="22" fill="#bfb9aa"><tspan x="80" dy="0">Te Pā Tūwatawata as a model for Indigenous-led digital</tspan><tspan x="80" dy="32">infrastructure.</tspan></text>
  <line x1="830" y1="180" x2="830" y2="320" stroke="#f5f0e6" stroke-width="6" stroke-linecap="round"/><circle cx="830" cy="180" r="4" fill="#c41e1e"/><line x1="860" y1="172" x2="860" y2="320" stroke="#f5f0e6" stroke-width="6" stroke-linecap="round"/><circle cx="860" cy="172" r="4" fill="#c41e1e"/><line x1="890" y1="164" x2="890" y2="320" stroke="#f5f0e6" stroke-width="6" stroke-linecap="round"/><circle cx="890" cy="164" r="4" fill="#c41e1e"/><line x1="920" y1="156" x2="920" y2="320" stroke="#f5f0e6" stroke-width="6" stroke-linecap="round"/><circle cx="920" cy="156" r="4" fill="#c41e1e"/><line x1="950" y1="148" x2="950" y2="320" stroke="#f5f0e6" stroke-width="6" stroke-linecap="round"/><circle cx="950" cy="148" r="4" fill="#c41e1e"/><line x1="980" y1="140" x2="980" y2="320" stroke="#f5f0e6" stroke-width="6" stroke-linecap="round"/><circle cx="980" cy="140" r="4" fill="#c41e1e"/><line x1="1010" y1="148" x2="1010" y2="320" stroke="#f5f0e6" stroke-width="6" stroke-linecap="round"/><circle cx="1010" cy="148" r="4" fill="#c41e1e"/><line x1="1040" y1="156" x2="1040" y2="320" stroke="#f5f0e6" stroke-width="6" stroke-linecap="round"/><circle cx="1040" cy="156" r="4" fill="#c41e1e"/><line x1="1070" y1="164" x2="1070" y2="320" stroke="#f5f0e6" stroke-width="6" stroke-linecap="round"/><circle cx="1070" cy="164" r="4" fill="#c41e1e"/><line x1="1100" y1="172" x2="1100" y2="320" stroke="#f5f0e6" stroke-width="6" stroke-linecap="round"/><circle cx="1100" cy="172" r="4" fill="#c41e1e"/><path d="M 880 320 L 950 240 L 1020 320 Z" fill="none" stroke="#c41e1e" stroke-width="6"/><rect x="895" y="320" width="110" height="60" fill="none" stroke="#f5f0e6" stroke-width="5"/>
  <line x1="80" y1="560" x2="1120" y2="560" stroke="#262626" stroke-width="2"/>
  <text x="80" y="612" font-family="'Bebas Neue',sans-serif" font-size="28" fill="#f5f0e6" letter-spacing="4">WED 08 JUL 2026 · 6PM NZT</text>
  <text x="1120" y="612" text-anchor="end" font-family="'Bebas Neue',sans-serif" font-size="22" fill="#c41e1e" letter-spacing="2">TE-PA.ORG · MODULE 2</text>
</svg>