<svg xmlns="http://www.w3.org/2000/svg" viewBox="0 0 1200 675" width="1200" height="675">
  <rect width="1200" height="675" fill="#0c0c0c"/>
  <rect x="0" y="0" width="14" height="675" fill="#c41e1e"/>
  <text x="80" y="100" font-family="'Bebas Neue',sans-serif" font-size="30" fill="#c41e1e" letter-spacing="5">TE PĀ TŪWATAWATA · MODULE 5</text>
  <text y="250" font-family="'Bebas Neue',sans-serif" font-size="60" fill="#f5f0e6" letter-spacing="2"><tspan x="80" dy="0">Hoahoa tika</tspan></text>
  <text y="346" font-family="-apple-system,sans-serif" font-size="22" fill="#bfb9aa"><tspan x="80" dy="0">Designing ethical systems — what does a decolonised AI</tspan><tspan x="80" dy="32">architecture look like?</tspan></text>
  <path d="M 798 170 A 22 22 0 0 1 842 170" fill="none" stroke="#c41e1e" stroke-width="5"/><path d="M 853 170 A 22 22 0 0 1 897 170" fill="none" stroke="#f5f0e6" stroke-width="5"/><path d="M 908 170 A 22 22 0 0 1 952 170" fill="none" stroke="#f5f0e6" stroke-width="5"/><path d="M 963 170 A 22 22 0 0 1 1007 170" fill="none" stroke="#c41e1e" stroke-width="5"/><path d="M 1018 170 A 22 22 0 0 1 1062 170" fill="none" stroke="#f5f0e6" stroke-width="5"/><path d="M 823 220 A 22 22 0 0 1 867 220" fill="none" stroke="#f5f0e6" stroke-width="5"/><path d="M 878 220 A 22 22 0 0 1 922 220" fill="none" stroke="#f5f0e6" stroke-width="5"/><path d="M 933 220 A 22 22 0 0 1 977 220" fill="none" stroke="#c41e1e" stroke-width="5"/><path d="M 988 220 A 22 22 0 0 1 1032 220" fill="none" stroke="#f5f0e6" stroke-width="5"/><path d="M 1043 220 A 22 22 0 0 1 1087 220" fill="none" stroke="#f5f0e6" stroke-width="5"/><path d="M 798 270 A 22 22 0 0 1 842 270" fill="none" stroke="#f5f0e6" stroke-width="5"/><path d="M 853 270 A 22 22 0 0 1 897 270" fill="none" stroke="#c41e1e" stroke-width="5"/><path d="M 908 270 A 22 22 0 0 1 952 270" fill="none" stroke="#f5f0e6" stroke-width="5"/><path d="M 963 270 A 22 22 0 0 1 1007 270" fill="none" stroke="#f5f0e6" stroke-width="5"/><path d="M 1018 270 A 22 22 0 0 1 1062 270" fill="none" stroke="#c41e1e" stroke-width="5"/>
  <line x1="80" y1="560" x2="1120" y2="560" stroke="#262626" stroke-width="2"/>
  <text x="80" y="612" font-family="'Bebas Neue',sans-serif" font-size="28" fill="#f5f0e6" letter-spacing="4">WED 29 JUL 2026 · 6PM NZT</text>
  <text x="1120" y="612" text-anchor="end" font-family="'Bebas Neue',sans-serif" font-size="22" fill="#c41e1e" letter-spacing="2">TE-PA.ORG · MODULE 5</text>
</svg>