<svg xmlns="http://www.w3.org/2000/svg" viewBox="0 0 1200 675" width="1200" height="675">
  <rect width="1200" height="675" fill="#0c0c0c"/>
  <rect x="0" y="0" width="14" height="675" fill="#c41e1e"/>
  <text x="80" y="100" font-family="'Bebas Neue',sans-serif" font-size="30" fill="#c41e1e" letter-spacing="5">TE PĀ TŪWATAWATA · MODULE 3</text>
  <text y="210" font-family="'Bebas Neue',sans-serif" font-size="60" fill="#f5f0e6" letter-spacing="2"><tspan x="80" dy="0">AI me te raupatu</tspan><tspan x="80" dy="68">matihiko</tspan></text>
  <text y="374" font-family="-apple-system,sans-serif" font-size="22" fill="#bfb9aa"><tspan x="80" dy="0">AI and digital extraction — tracing the colonial logic</tspan><tspan x="80" dy="32">inside machine learning.</tspan></text>
  <path d="M 820 360 L 840 150 L 860 360 Z" fill="#c41e1e"/><path d="M 860 360 L 880 150 L 900 360 Z" fill="#f5f0e6"/><path d="M 900 360 L 920 150 L 940 360 Z" fill="#c41e1e"/><path d="M 940 360 L 960 150 L 980 360 Z" fill="#f5f0e6"/><path d="M 980 360 L 1000 150 L 1020 360 Z" fill="#c41e1e"/><path d="M 1020 360 L 1040 150 L 1060 360 Z" fill="#f5f0e6"/><path d="M 1060 360 L 1080 150 L 1100 360 Z" fill="#c41e1e"/>
  <line x1="80" y1="560" x2="1120" y2="560" stroke="#262626" stroke-width="2"/>
  <text x="80" y="612" font-family="'Bebas Neue',sans-serif" font-size="28" fill="#f5f0e6" letter-spacing="4">WED 15 JUL 2026 · 6PM NZT</text>
  <text x="1120" y="612" text-anchor="end" font-family="'Bebas Neue',sans-serif" font-size="22" fill="#c41e1e" letter-spacing="2">TE-PA.ORG · MODULE 3</text>
</svg>